<svg width="166" height="166" viewBox="0 0 166 166" fill="none" xmlns="http://www.w3.org/2000/svg">
<circle cx="82.8713" cy="82.8713" r="82.8713" fill="#F7D9D9"/>
<g clip-path="url(#clip0_15_212)">
<path d="M109.03 119.782H55.8754C51.4699 119.782 47.2449 118.032 44.1297 114.916C41.0146 111.801 39.2645 107.576 39.2645 103.171V56.6602C39.2645 55.7791 39.6145 54.9341 40.2376 54.3111C40.8606 53.688 41.7056 53.338 42.5867 53.338H109.03C113.436 53.338 117.661 55.0881 120.776 58.2032C123.891 61.3184 125.641 65.5434 125.641 69.9489V103.171C125.641 107.576 123.891 111.801 120.776 114.916C117.661 118.032 113.436 119.782 109.03 119.782ZM45.9089 59.9824V103.171C45.9089 105.814 46.9589 108.349 48.828 110.218C50.6971 112.087 53.2321 113.137 55.8754 113.137H109.03C111.674 113.137 114.209 112.087 116.078 110.218C117.947 108.349 118.997 105.814 118.997 103.171V69.9489C118.997 67.3056 117.947 64.7706 116.078 62.9015C114.209 61.0324 111.674 59.9824 109.03 59.9824H45.9089Z" fill="#805C5C"/>
<path d="M115.675 59.9823C114.794 59.9823 113.949 59.6323 113.325 59.0093C112.702 58.3863 112.352 57.5412 112.352 56.6601V47.5242C112.416 46.3604 112.216 45.1972 111.767 44.1215C111.319 43.0458 110.633 42.0853 109.761 41.3117C108.978 40.7248 108.071 40.3241 107.11 40.1399C106.149 39.9557 105.158 39.9929 104.213 40.2486L48.5002 52.9061C47.7508 53.0749 47.083 53.4981 46.6105 54.1038C46.1381 54.7096 45.8901 55.4603 45.9089 56.2283C45.9089 57.1094 45.5589 57.9544 44.9358 58.5774C44.3128 59.2004 43.4678 59.5504 42.5867 59.5504C41.7056 59.5504 40.8606 59.2004 40.2376 58.5774C39.6145 57.9544 39.2645 57.1094 39.2645 56.2283C39.245 53.9572 40.0018 51.7476 41.4095 49.9653C42.8172 48.183 44.7914 46.935 47.0052 46.4278L102.751 33.7703C104.669 33.2856 106.671 33.2461 108.606 33.6549C110.541 34.0638 112.357 34.9101 113.914 36.1291C115.56 37.5265 116.872 39.276 117.752 41.2483C118.632 43.2206 119.057 45.3654 118.997 47.5242V56.6601C118.997 57.5412 118.647 58.3863 118.024 59.0093C117.401 59.6323 116.556 59.9823 115.675 59.9823Z" fill="#805C5C"/>
<path d="M122.319 99.8484H99.0637C95.5394 99.8484 92.1593 98.4484 89.6672 95.9562C87.1751 93.4641 85.775 90.0841 85.775 86.5597C85.775 83.0353 87.1751 79.6553 89.6672 77.1632C92.1593 74.6711 95.5394 73.271 99.0637 73.271H122.319C123.2 73.271 124.045 73.621 124.668 74.244C125.291 74.8671 125.641 75.7121 125.641 76.5932V96.5262C125.641 97.4073 125.291 98.2524 124.668 98.8754C124.045 99.4984 123.2 99.8484 122.319 99.8484ZM99.0637 79.9154C97.3015 79.9154 95.6115 80.6154 94.3655 81.8614C93.1194 83.1075 92.4194 84.7975 92.4194 86.5597C92.4194 88.3219 93.1194 90.0119 94.3655 91.258C95.6115 92.504 97.3015 93.2041 99.0637 93.2041H118.997V79.9154H99.0637Z" fill="#805C5C"/>
</g>
<defs>
<clipPath id="clip0_15_212">
<rect width="106.31" height="106.31" fill="white" transform="translate(29.298 23.4384)"/>
</clipPath>
</defs>
</svg>
