<svg width="166" height="166" viewBox="0 0 166 166" fill="none" xmlns="http://www.w3.org/2000/svg">
<circle cx="82.8713" cy="82.8713" r="82.8713" fill="#F7D9D9"/>
<g clip-path="url(#clip0_15_213)">
<path d="M130.628 62.6682C125.155 49.9097 115.856 40.6308 102.99 35.1439C96.5604 32.4015 89.8239 31.0007 82.7861 31.0007C75.7495 31.0007 69.0626 32.3883 62.6397 35.1439C49.8811 40.6162 40.5405 49.8892 35.0583 62.6682C32.3112 69.0705 30.9722 75.7779 30.9722 82.8145C30.9722 89.8524 32.3112 96.6154 35.0583 103.019C40.5405 115.798 49.8823 125.127 62.6397 130.6C69.0638 133.356 75.7493 134.742 82.7861 134.742C89.8228 134.742 96.5604 133.341 102.989 130.6C115.855 125.113 125.154 115.776 130.628 103.019C133.383 96.5949 134.771 89.8524 134.771 82.8145C134.771 75.7779 133.384 69.0922 130.628 62.6682ZM122.343 105.743C118.269 112.73 112.687 118.273 105.658 122.371C98.6708 126.445 91.0153 128.5 82.7873 128.5C76.6018 128.5 70.6995 127.309 65.0805 124.868C59.4616 122.428 54.6102 119.221 50.5519 115.164C46.4936 111.105 43.2635 106.207 40.8481 100.578C38.4399 94.9703 37.2728 89.0013 37.2728 82.8146C37.2728 74.5854 39.2947 66.9688 43.3459 60.0012C47.4115 53.0082 52.9941 47.4594 59.9738 43.3731C66.9524 39.287 74.5582 37.2432 82.7861 37.2432C91.0153 37.2432 98.6695 39.299 105.657 43.3731C112.686 47.4714 118.255 53.0201 122.341 60.001C126.428 66.9808 128.47 74.5854 128.47 82.8145C128.47 91.0439 126.441 98.7124 122.343 105.743Z" fill="#805C5C"/>
<path d="M86.078 82.3605V52.963C86.078 51.2038 84.5452 49.7849 82.7859 49.7849C81.1406 49.7849 79.6647 51.2038 79.6647 52.963V82.8144C79.6647 82.8713 79.7785 83.099 79.7785 83.2686C79.6647 84.2903 79.9493 85.1415 80.6297 85.8232L97.5992 102.791C98.7348 103.927 100.834 103.927 101.969 102.791C103.274 101.486 103.188 99.5927 101.969 98.365L86.078 82.3605Z" fill="#805C5C"/>
</g>
<defs>
<clipPath id="clip0_15_213">
<rect width="103.798" height="103.798" fill="white" transform="translate(30.9722 30.9722)"/>
</clipPath>
</defs>
</svg>
