<svg width="175" height="175" viewBox="0 0 175 175" fill="none" xmlns="http://www.w3.org/2000/svg">
<circle cx="84.0971" cy="91.2422" r="82.8713" fill="#F7D9D9"/>
<path d="M77.0636 89.8665C77.5941 90.397 78.3899 90.6622 79.1856 90.6622H79.4509C80.2466 90.6622 81.0424 90.1317 81.5729 89.336L96.9577 68.1156C98.0187 66.7893 97.7535 64.9325 96.1619 63.8715C94.8357 62.8105 92.9789 63.0757 91.9179 64.6672L78.3898 82.9698L71.7585 76.3385C70.6974 75.2774 68.5754 75.2774 67.5144 76.3385C66.4534 77.3995 66.4534 79.5215 67.5144 80.5826L77.0636 89.8665Z" fill="#805C5C"/>
<path d="M116.321 130.981C117.648 129.655 118.178 127.798 117.382 125.676L108.894 104.721C111.016 103.925 112.873 102.599 114.465 100.742C117.382 97.0283 117.382 92.2537 114.995 88.2749C113.669 85.8876 114.465 82.9698 116.852 81.3783C120.831 78.7257 122.687 74.2164 121.626 69.7071C120.565 64.9325 116.852 61.7494 111.812 60.9537C108.894 60.6884 107.037 58.3011 107.037 55.3833C107.303 50.6087 104.915 46.6299 100.671 44.5078C96.1619 42.3858 91.1221 42.9163 87.4085 46.3646C85.2865 48.2214 81.8382 48.4867 79.7161 46.6299C76.0026 43.4468 70.6975 42.6511 66.4534 44.7731C62.2093 46.8951 59.822 51.1392 60.0873 55.6486C60.3525 58.5664 58.2305 60.9536 55.5779 61.2189C50.5381 61.7494 46.8245 64.9325 45.7635 69.7071C44.7025 74.2164 46.5593 78.991 50.5381 81.6435C52.9254 83.2351 53.7211 85.8876 52.3949 88.2749C50.0076 92.2537 50.2728 97.0283 53.1906 100.742C55.3127 103.394 58.2305 104.986 61.4135 105.251L53.9864 125.941C53.1906 128.063 53.7211 129.92 55.0474 131.246C55.8432 132.042 57.1695 133.368 59.2915 133.368C59.822 133.368 60.6178 133.368 61.6788 132.573L68.3102 129.92L71.4932 136.286C72.289 138.408 74.411 139.734 76.7983 139.734C79.1856 139.734 81.3077 138.408 82.1034 136.286L85.5517 127.267L89.0001 135.756C89.7958 137.878 91.9179 139.469 94.3052 139.469C96.6925 139.469 98.8145 138.143 99.6103 136.021L102.528 129.655L109.159 132.307C110.22 133.103 111.281 133.103 111.547 133.103C114.199 133.103 115.526 131.777 116.321 130.981ZM57.7 97.0283C57.1695 96.2326 55.8432 94.1105 57.4347 91.1927C60.3525 86.1529 58.761 79.7868 53.7211 76.6037C51.3338 75.0122 51.0686 72.8901 51.5991 71.0333C52.1296 68.9113 53.7211 67.585 56.1084 67.3198C62.2093 66.524 66.4534 61.2189 65.9229 55.3833C65.6576 53.2613 66.9839 51.4045 68.8407 50.3434C70.6975 49.5477 73.35 49.2824 75.4721 51.4045C79.9814 55.118 86.878 55.118 91.3874 51.1392C93.5094 49.2824 96.1619 49.5477 98.0187 50.3434C100.141 51.4045 101.202 53.2613 100.937 55.3833C100.406 61.2189 104.915 66.524 110.751 67.3198C113.138 67.585 114.995 69.1766 115.526 71.2986C116.056 73.4206 115.26 75.2774 113.138 76.6037C108.098 80.052 106.507 86.4181 109.425 91.7232C110.486 93.58 110.486 95.4368 109.159 97.2936C108.098 98.8851 105.711 100.211 102.793 99.4156C96.9577 97.8241 90.5916 100.742 88.4696 106.047C87.4085 108.7 84.756 109.495 82.8992 109.495C80.5119 109.495 78.6551 108.169 77.8594 106.047C75.7373 101.803 71.4932 99.1504 66.9839 99.1504C65.9229 99.1504 64.8619 99.4156 63.8008 99.6809C61.1483 99.9461 58.761 98.6199 57.7 97.0283ZM77.0636 133.103L73.35 125.411C72.8195 124.35 72.0237 123.289 69.6364 123.289H68.8407L60.3525 126.737L68.0449 104.721C70.167 104.986 72.0237 106.047 72.8195 107.904C74.1458 111.617 77.3288 114.005 81.0424 114.8L82.6339 119.31L77.0636 133.103ZM102.528 123.023H101.732C99.6103 123.023 98.5492 124.35 98.284 125.411L94.8357 132.838L88.4696 117.718L87.4085 114.535C90.5916 113.474 93.2441 111.087 94.5704 107.904C95.3662 105.516 98.8145 104.19 101.467 104.986C101.732 104.986 102.263 105.251 102.528 105.251L111.016 126.472L102.528 123.023Z" fill="#805C5C"/>
</svg>
